<?xml version="1.0" standalone="no"?>
<!DOCTYPE svg PUBLIC "-//W3C//DTD SVG 20010904//EN"
 "http://www.w3.org/TR/2001/REC-SVG-20010904/DTD/svg10.dtd">
<svg version="1.0" xmlns="http://www.w3.org/2000/svg"
 width="500.000000pt" height="500.000000pt" viewBox="0 0 500.000000 500.000000"
 preserveAspectRatio="xMidYMid meet">
<metadata>
Created by potrace 1.16, written by Peter Selinger 2001-2019
</metadata>
<g transform="translate(0.000000,500.000000) scale(0.100000,-0.100000)"
fill="#000000" stroke="none">
<path d="M2330 4304 c-284 -34 -451 -84 -704 -210 -232 -117 -495 -360 -673
-624 -28 -42 -111 -200 -146 -280 -42 -95 -93 -277 -119 -420 -19 -112 -16
-450 5 -570 53 -290 169 -553 355 -803 90 -120 300 -316 432 -401 25 -16 56
-37 70 -46 32 -22 199 -102 270 -130 111 -44 222 -76 355 -101 93 -18 493 -19
590 -1 91 17 297 72 309 83 6 5 16 9 24 9 8 0 74 29 147 64 206 99 334 191
500 360 94 95 205 228 240 288 6 9 31 53 58 97 26 44 47 82 47 85 0 3 13 33
29 68 101 219 151 462 151 728 0 216 -25 374 -93 575 -44 132 -112 279 -168
363 -16 24 -29 47 -29 51 0 4 -9 16 -20 26 -11 10 -20 22 -20 26 0 10 -14 28
-101 128 -124 142 -270 270 -415 363 -56 36 -246 130 -319 157 -33 13 -69 27
-80 31 -35 15 -177 49 -270 65 -87 16 -354 27 -425 19z m400 -192 c409 -73
737 -267 1009 -597 263 -318 396 -769 350 -1185 -62 -569 -420 -1064 -951
-1315 -118 -55 -302 -111 -421 -127 -144 -20 -502 -14 -538 8 -4 2 -24 6 -45
10 -57 8 -258 77 -339 115 -207 98 -418 260 -565 434 -179 213 -321 517 -362
780 -16 101 -21 403 -8 480 35 211 67 317 141 475 46 96 139 246 206 330 37
46 197 207 248 248 124 102 351 230 490 277 75 25 233 63 289 70 28 3 52 8 55
11 9 9 380 -3 441 -14z"/>
<path d="M2314 3598 c-93 -94 -259 -259 -368 -368 l-200 -197 54 -62 c30 -33
58 -61 62 -61 4 0 23 14 43 31 l35 31 0 -315 0 -314 54 -6 c99 -10 157 -48
327 -214 86 -84 159 -153 162 -153 4 0 76 69 161 154 170 170 217 202 316 213
l60 6 0 320 0 321 40 -39 40 -39 62 63 61 62 -359 362 c-197 199 -364 365
-370 369 -6 4 -80 -63 -180 -164z m356 -252 l180 -179 0 -339 0 -338 -57 -26
c-69 -31 -119 -70 -231 -178 l-82 -80 -93 92 c-112 111 -125 121 -209 161
l-68 32 0 330 0 331 183 189 c100 104 185 188 189 186 4 -1 89 -83 188 -181z"/>
<path d="M2543 3073 c-46 -22 -52 -56 -52 -260 1 -195 11 -231 64 -245 47 -12
76 1 132 58 57 58 71 90 53 124 -9 16 -9 25 -1 33 16 16 13 89 -4 111 -8 10
-12 23 -9 28 12 19 -7 55 -53 104 -55 59 -84 70 -130 47z m77 -68 c0 -18 5
-25 19 -25 29 0 47 -28 33 -51 -18 -28 -15 -46 8 -52 15 -4 20 -14 20 -41 0
-35 -1 -36 -22 -25 -18 9 -23 9 -26 -1 -9 -26 -51 -60 -75 -60 -24 0 -25 4
-29 73 -6 93 -3 100 38 94 18 -3 35 -3 38 0 12 12 -15 42 -44 48 -25 5 -30 11
-30 36 0 27 3 29 35 29 31 0 35 -3 35 -25z"/>
<path d="M2283 3022 c-35 -39 -52 -70 -57 -97 -16 -92 -18 -126 -7 -139 8 -9
7 -21 -1 -44 -15 -39 0 -76 42 -100 16 -9 30 -22 30 -29 0 -22 44 -43 92 -43
76 0 78 7 78 251 0 194 -1 208 -21 233 -16 21 -29 26 -63 26 -40 0 -47 -4 -93
-58z m133 -16 c8 -33 -2 -46 -36 -46 -25 0 -40 -15 -40 -39 0 -5 17 -8 38 -7
l37 1 3 -76 c3 -75 2 -77 -24 -83 -31 -8 -69 13 -79 44 -6 20 -35 29 -35 10 0
-17 -17 -11 -22 8 -7 26 9 62 27 62 18 0 20 21 3 38 -16 16 9 62 34 62 11 0
18 7 18 18 0 25 9 32 41 32 22 0 30 -6 35 -24z"/>
<path d="M1532 2323 l3 -368 27 -55 c20 -40 81 -110 219 -253 l191 -197 135
137 c75 76 167 171 206 210 l71 73 -191 190 c-105 104 -203 194 -217 200 -55
21 -116 -29 -116 -95 0 -37 6 -47 70 -110 77 -77 89 -111 48 -139 -41 -29 -60
-19 -166 87 l-102 102 0 239 c0 223 -1 241 -21 276 -26 47 -66 70 -119 70
l-41 0 3 -367z"/>
<path d="M3323 2671 c-56 -35 -58 -44 -63 -318 l-5 -252 -94 -94 c-118 -118
-123 -122 -160 -103 -33 18 -45 50 -29 80 6 12 37 46 68 76 64 61 80 101 58
147 -19 40 -77 67 -114 53 -27 -10 -914 -896 -914 -912 0 -4 25 -33 55 -65
l55 -58 149 151 150 152 148 -150 148 -149 59 61 59 61 -147 148 -148 148 46
47 c26 25 49 46 52 46 4 0 70 -65 148 -146 l142 -145 194 196 c110 110 204
214 217 238 38 74 44 151 41 487 l-3 315 -40 3 c-26 2 -51 -4 -72 -17z"/>
</g>
</svg>
